<svg id="Layer_1" data-name="Layer 1" xmlns="http://www.w3.org/2000/svg" viewBox="0 0 137.35 95.72"><defs><style>.cls-1{fill:#231f20;}</style></defs><path class="cls-1" d="M75.75,89.86l60.66-56.48a24.64,24.64,0,0,0-16.54-6.24H30.13a24.75,24.75,0,0,0-15.77,5.57Z" transform="translate(-6.33 -27.14)"/><path class="cls-1" d="M143.67,49.3a20.68,20.68,0,0,0-2-8.89l-39.95,37.2,38,35.36a21,21,0,0,0,4-12.27Z" transform="translate(-6.33 -27.14)"/><path class="cls-1" d="M8.8,39.46A20.87,20.87,0,0,0,6.33,49.3v51.4a21,21,0,0,0,4.38,12.8l38.8-36.13Z" transform="translate(-6.33 -27.14)"/><path class="cls-1" d="M95.31,83.58,82.15,95.83l-6.4,6L55.92,83.34l-38.66,36a24.94,24.94,0,0,0,12.87,3.53h89.74A25,25,0,0,0,133.33,119Z" transform="translate(-6.33 -27.14)"/></svg>