<svg id="Layer_1" data-name="Layer 1" xmlns="http://www.w3.org/2000/svg" viewBox="0 0 129.45 129.45"><defs><style>.cls-1{fill:#231f20;}</style></defs><path class="cls-1" d="M127.47,83.91a42.35,42.35,0,0,0,10.58-41.72L114.32,65.92c-6.39,6.38-16.47,6.75-22.4.82l-8.66-8.66c-5.93-5.93-5.56-16,.82-22.4L107.81,12A42.16,42.16,0,0,0,58.7,72.29L13.31,117.68a10.44,10.44,0,0,0,0,14.71l4.3,4.3a10.44,10.44,0,0,0,14.71,0L77.71,91.3A42.63,42.63,0,0,0,127.47,83.91ZM21.7,128.3a6.75,6.75,0,1,1,9.54,0A6.75,6.75,0,0,1,21.7,128.3Z" transform="translate(-10.28 -10.28)"/></svg>